<?xml version="1.0" encoding="utf-8"?>
<!-- Generator: Adobe Illustrator 23.0.5, SVG Export Plug-In . SVG Version: 6.00 Build 0)  -->
<svg version="1.1" id="publicdomainvectors.org" xmlns="http://www.w3.org/2000/svg" xmlns:xlink="http://www.w3.org/1999/xlink"
	 x="0px" y="0px" viewBox="0 0 658.66 497.75" style="enable-background:new 0 0 658.66 497.75;" xml:space="preserve">
<style type="text/css">
	.st0{fill-rule:evenodd;clip-rule:evenodd;fill:#E68F63;}
	.st1{fill-rule:evenodd;clip-rule:evenodd;fill:#F29D72;}
	.st2{fill-rule:evenodd;clip-rule:evenodd;fill:#F5B290;}
</style>
<g>
	<rect x="174.61" y="34.26" class="st0" width="96.15" height="127.09"/>
	<rect y="47.52" class="st0" width="159.58" height="105.21"/>
	<path class="st1" d="M140.13,32.27h34.48c18.96,0,34.48,15.52,34.48,34.48v0c0,18.96-15.52,34.48-34.48,34.48h0
		c-18.96,0-34.48-15.51-34.48-34.48V32.27z"/>
	<path class="st1" d="M140.13,66.75h40.67V0h-20.33c-11.18,0-20.33,9.15-20.33,20.33V66.75z"/>
	<path class="st2" d="M275.64,22.54h-33.57c-11.18,0-20.33,9.15-20.33,20.33v0c0,11.18,9.15,20.33,20.33,20.33h33.57
		c11.18,0,20.33-9.15,20.33-20.33v0C295.98,31.7,286.83,22.54,275.64,22.54z"/>
	<path class="st1" d="M174.61,92.39L174.61,92.39c18.96,0,34.48,15.52,34.48,34.48v0c0,18.96-15.52,34.48-34.48,34.48h0
		c-18.96,0-34.48-15.51-34.48-34.48v0C140.13,107.9,155.65,92.39,174.61,92.39z"/>
	<path class="st2" d="M282.81,55.26H240.7c-11.18,0-20.33,9.15-20.33,20.33l0,0c0,11.18,9.15,20.33,20.33,20.33h42.11
		c11.18,0,20.33-9.15,20.33-20.33l0,0C303.14,64.41,293.99,55.26,282.81,55.26z"/>
	<path class="st2" d="M275.64,89.52h-33.57c-11.18,0-20.33,9.15-20.33,20.33v0c0,11.18,9.15,20.33,20.33,20.33h33.57
		c11.18,0,20.33-9.15,20.33-20.33v0C295.98,98.67,286.83,89.52,275.64,89.52z"/>
	<path class="st2" d="M265.81,120.68h-23.74c-11.18,0-20.33,9.15-20.33,20.33v0c0,11.18,9.15,20.33,20.33,20.33h23.74
		c11.18,0,20.33-9.15,20.33-20.33v0C286.15,129.83,277,120.68,265.81,120.68z"/>
	<path class="st1" d="M234.16,0h-60.12c-11.18,0-20.33,9.15-20.33,20.33v20.34h100.79V20.33C254.49,9.15,245.34,0,234.16,0z"/>
	<path class="st1" d="M234.16,66.75L234.16,66.75c-11.18,0-20.33-9.15-20.33-20.33V20.33C213.82,9.15,222.97,0,234.16,0l0,0
		c11.18,0,20.33,9.15,20.33,20.33v26.08C254.49,57.6,245.34,66.75,234.16,66.75z"/>
</g>
<g>
	<path class="st1" d="M367.73,358.95H265.74c-11.18,0-20.33,9.15-20.33,20.33v0c0,11.18,9.15,20.33,20.33,20.33h101.99
		c11.18,0,20.33-9.15,20.33-20.33v0C388.07,368.1,378.91,358.95,367.73,358.95z"/>
	<path class="st1" d="M381.5,391.66H263.12c-11.18,0-20.33,9.15-20.33,20.33v0c0,11.18,9.15,20.33,20.33,20.33H381.5
		c11.18,0,20.33-9.15,20.33-20.33v0C401.83,400.81,392.68,391.66,381.5,391.66z"/>
	<path class="st1" d="M367.73,425.92H265.74c-11.18,0-20.33,9.15-20.33,20.33l0,0c0,11.18,9.15,20.33,20.33,20.33h101.99
		c11.18,0,20.33-9.15,20.33-20.33l0,0C388.07,435.07,378.91,425.92,367.73,425.92z"/>
	<path class="st1" d="M348.84,457.08h-83.09c-11.18,0-20.33,9.15-20.33,20.33v0c0,11.18,9.15,20.33,20.33,20.33h83.09
		c11.18,0,20.33-9.15,20.33-20.33v0C369.17,466.23,360.02,457.08,348.84,457.08z"/>
	<rect x="174.61" y="358.95" class="st0" width="96.15" height="138.8"/>
	<rect y="383.92" class="st0" width="159.58" height="105.21"/>
	<path class="st1" d="M140.13,368.67h34.48c18.96,0,34.48,15.52,34.48,34.48v0c0,18.96-15.52,34.48-34.48,34.48h0
		c-18.96,0-34.48-15.51-34.48-34.48V368.67z"/>
	<path class="st1" d="M140.13,403.15h40.67V336.4h-20.33c-11.18,0-20.33,9.15-20.33,20.33V403.15z"/>
	<path class="st1" d="M174.61,428.79L174.61,428.79c18.96,0,34.48,15.52,34.48,34.48v0c0,18.96-15.52,34.48-34.48,34.48h0
		c-18.96,0-34.48-15.51-34.48-34.48v0C140.13,444.31,155.65,428.79,174.61,428.79z"/>
	<path class="st1" d="M234.16,336.4h-60.12c-11.18,0-20.33,9.15-20.33,20.33v20.33h100.79v-20.33
		C254.49,345.55,245.34,336.4,234.16,336.4z"/>
	<path class="st1" d="M234.16,403.15L234.16,403.15c-11.18,0-20.33-9.15-20.33-20.33v-26.08c0-11.18,9.15-20.33,20.33-20.33l0,0
		c11.18,0,20.33,9.15,20.33,20.33v26.08C254.49,394,245.34,403.15,234.16,403.15z"/>
</g>
<g>
	<path class="st1" d="M295.63,181.92l122.93,26.07c10.94,2.32,17.99,13.17,15.67,24.11v0c-2.32,10.94-13.17,17.99-24.11,15.67
		L287.2,221.7c-10.94-2.32-17.99-13.17-15.67-24.11v0C273.84,186.65,284.69,179.6,295.63,181.92z"/>
	<path class="st1" d="M287.01,262.1l138.42-25.75c10.99-2.04,21.66,5.28,23.71,16.27l0,0c2.04,11-5.28,21.67-16.27,23.71
		l-138.42,25.75c-10.99,2.05-21.66-5.28-23.71-16.27v0C268.7,274.81,276.02,264.14,287.01,262.1z"/>
	<rect x="387.91" y="201.58" class="st0" width="96.15" height="138.8"/>
	<rect x="499.08" y="226.55" class="st0" width="159.58" height="105.21"/>
	<path class="st1" d="M518.53,211.3h-34.48c-18.96,0-34.48,15.52-34.48,34.48v0c0,18.96,15.52,34.48,34.48,34.48h0
		c18.96,0,34.48-15.51,34.48-34.48V211.3z"/>
	<path class="st1" d="M518.53,245.78h-40.67v-66.75h20.33c11.18,0,20.33,9.15,20.33,20.33V245.78z"/>
	<path class="st1" d="M484.05,271.42L484.05,271.42c-18.96,0-34.48,15.52-34.48,34.48v0c0,18.96,15.52,34.48,34.48,34.48h0
		c18.96,0,34.48-15.51,34.48-34.48v0C518.53,286.94,503.02,271.42,484.05,271.42z"/>
	<path class="st2" d="M383.02,268.55h33.57c11.18,0,20.33,9.15,20.33,20.33v0c0,11.18-9.15,20.33-20.33,20.33h-33.57
		c-11.18,0-20.33-9.15-20.33-20.33v0C362.68,277.7,371.83,268.55,383.02,268.55z"/>
	<path class="st2" d="M392.85,299.71h23.74c11.18,0,20.33,9.15,20.33,20.33v0c0,11.18-9.15,20.33-20.33,20.33h-23.74
		c-11.18,0-20.33-9.15-20.33-20.33v0C372.52,308.86,381.67,299.71,392.85,299.71z"/>
	<path class="st1" d="M424.5,179.03h60.12c11.18,0,20.33,9.15,20.33,20.33v20.33H404.17v-20.33
		C404.17,188.18,413.32,179.03,424.5,179.03z"/>
	<path class="st1" d="M424.5,245.78L424.5,245.78c11.18,0,20.33-9.15,20.33-20.33v-26.08c0-11.18-9.15-20.33-20.33-20.33l0,0
		c-11.18,0-20.33,9.15-20.33,20.33v26.08C404.17,236.63,413.32,245.78,424.5,245.78z"/>
</g>
</svg>
